<mxfile host="65bd71144e">
    <diagram id="UrpWUrPDc7pazScPs_SQ" name="Page-1">
        <mxGraphModel dx="2017" dy="1508" grid="1" gridSize="10" guides="1" tooltips="1" connect="1" arrows="1" fold="1" page="1" pageScale="1" pageWidth="850" pageHeight="1100" background="#ffffff" math="0" shadow="0">
            <root>
                <mxCell id="0"/>
                <mxCell id="1" parent="0"/>
                <mxCell id="55" value="" style="rounded=0;whiteSpace=wrap;html=1;fillColor=none;strokeColor=#466BB0;dashed=1;" vertex="1" parent="1">
                    <mxGeometry x="70" y="130" width="1290" height="850" as="geometry"/>
                </mxCell>
                <mxCell id="5" value="" style="rounded=1;whiteSpace=wrap;html=1;labelBackgroundColor=none;strokeWidth=2;fillColor=none;strokeColor=#FBB041;" parent="1" vertex="1">
                    <mxGeometry x="840" y="205" width="500" height="750" as="geometry"/>
                </mxCell>
                <mxCell id="57" value="" style="rounded=0;whiteSpace=wrap;html=1;labelBackgroundColor=none;strokeColor=none;strokeWidth=2;fillColor=#E6E6E6;" vertex="1" parent="1">
                    <mxGeometry x="1140" y="490" width="170" height="120" as="geometry"/>
                </mxCell>
                <mxCell id="7" value="" style="rounded=1;whiteSpace=wrap;html=1;labelBackgroundColor=none;strokeWidth=2;fillColor=none;strokeColor=#FBB041;" parent="1" vertex="1">
                    <mxGeometry x="150" y="210" width="450" height="750" as="geometry"/>
                </mxCell>
                <mxCell id="3" value="&lt;span style=&quot;color: rgb(0 , 0 , 0)&quot;&gt;Istio Mesh&lt;/span&gt;" style="text;html=1;align=center;verticalAlign=middle;resizable=0;points=[];autosize=1;strokeColor=none;fillColor=none;fontSize=20;" parent="1" vertex="1">
                    <mxGeometry x="80" y="100" width="110" height="30" as="geometry"/>
                </mxCell>
                <mxCell id="6" value="" style="rounded=0;whiteSpace=wrap;html=1;labelBackgroundColor=none;strokeColor=none;strokeWidth=2;fillColor=#E6E6E6;" parent="1" vertex="1">
                    <mxGeometry x="190" y="270" width="230" height="100" as="geometry"/>
                </mxCell>
                <mxCell id="8" value="" style="rounded=0;whiteSpace=wrap;html=1;labelBackgroundColor=none;strokeColor=none;strokeWidth=2;fillColor=#E6E6E6;" parent="1" vertex="1">
                    <mxGeometry x="410" y="480" width="180" height="140" as="geometry"/>
                </mxCell>
                <mxCell id="9" value="&lt;font style=&quot;font-size: 20px&quot;&gt;Service A&lt;/font&gt;" style="rounded=1;whiteSpace=wrap;html=1;labelBackgroundColor=none;fontColor=#000000;strokeColor=none;strokeWidth=2;fillColor=#FFFFFF;" parent="1" vertex="1">
                    <mxGeometry x="210" y="290" width="120" height="60" as="geometry"/>
                </mxCell>
                <mxCell id="14" value="" style="rounded=0;whiteSpace=wrap;html=1;labelBackgroundColor=none;strokeColor=none;strokeWidth=2;fillColor=#E6E6E6;" parent="1" vertex="1">
                    <mxGeometry x="910" y="270" width="230" height="100" as="geometry"/>
                </mxCell>
                <mxCell id="15" value="&lt;font style=&quot;font-size: 20px&quot;&gt;Service B&lt;/font&gt;" style="rounded=1;whiteSpace=wrap;html=1;labelBackgroundColor=none;fontColor=#000000;strokeColor=none;strokeWidth=2;fillColor=#FFFFFF;" parent="1" vertex="1">
                    <mxGeometry x="1010" y="290" width="120" height="60" as="geometry"/>
                </mxCell>
                <mxCell id="17" value="" style="shape=hexagon;perimeter=hexagonPerimeter2;whiteSpace=wrap;html=1;fixedSize=1;labelBackgroundColor=none;fontSize=20;fontColor=#000000;strokeColor=#E904EE;strokeWidth=2;fillColor=#FFFFFF;" parent="1" vertex="1">
                    <mxGeometry x="340" y="290" width="70" height="60" as="geometry"/>
                </mxCell>
                <mxCell id="19" value="" style="rounded=0;whiteSpace=wrap;html=1;labelBackgroundColor=none;strokeColor=none;strokeWidth=2;fillColor=#E6E6E6;" parent="1" vertex="1">
                    <mxGeometry x="195" y="820" width="230" height="100" as="geometry"/>
                </mxCell>
                <mxCell id="20" value="&lt;font style=&quot;font-size: 20px&quot;&gt;Service B&lt;/font&gt;" style="rounded=1;whiteSpace=wrap;html=1;labelBackgroundColor=none;fontColor=#000000;strokeColor=none;strokeWidth=2;fillColor=#FFFFFF;" parent="1" vertex="1">
                    <mxGeometry x="215" y="840" width="120" height="60" as="geometry"/>
                </mxCell>
                <mxCell id="21" value="" style="shape=hexagon;perimeter=hexagonPerimeter2;whiteSpace=wrap;html=1;fixedSize=1;labelBackgroundColor=none;fontSize=20;fontColor=#000000;strokeColor=#E904EE;strokeWidth=2;fillColor=#FFFFFF;" parent="1" vertex="1">
                    <mxGeometry x="345" y="840" width="70" height="60" as="geometry"/>
                </mxCell>
                <mxCell id="22" value="" style="shape=hexagon;perimeter=hexagonPerimeter2;whiteSpace=wrap;html=1;fixedSize=1;labelBackgroundColor=none;fontSize=20;fontColor=#000000;strokeColor=#E904EE;strokeWidth=2;fillColor=#FFFFFF;" parent="1" vertex="1">
                    <mxGeometry x="930" y="290" width="70" height="60" as="geometry"/>
                </mxCell>
                <mxCell id="23" value="" style="rounded=0;whiteSpace=wrap;html=1;labelBackgroundColor=none;strokeColor=none;strokeWidth=2;fillColor=#E6E6E6;" parent="1" vertex="1">
                    <mxGeometry x="910" y="820" width="230" height="100" as="geometry"/>
                </mxCell>
                <mxCell id="24" value="&lt;font style=&quot;font-size: 20px&quot;&gt;Service B&lt;/font&gt;" style="rounded=1;whiteSpace=wrap;html=1;labelBackgroundColor=none;fontColor=#000000;strokeColor=none;strokeWidth=2;fillColor=#FFFFFF;" parent="1" vertex="1">
                    <mxGeometry x="1010" y="840" width="120" height="60" as="geometry"/>
                </mxCell>
                <mxCell id="25" value="" style="shape=hexagon;perimeter=hexagonPerimeter2;whiteSpace=wrap;html=1;fixedSize=1;labelBackgroundColor=none;fontSize=20;fontColor=#000000;strokeColor=#E904EE;strokeWidth=2;fillColor=#FFFFFF;" parent="1" vertex="1">
                    <mxGeometry x="930" y="840" width="70" height="60" as="geometry"/>
                </mxCell>
                <mxCell id="26" value="&lt;font style=&quot;font-size: 18px&quot;&gt;Control Plane&lt;/font&gt;" style="rounded=1;whiteSpace=wrap;html=1;labelBackgroundColor=none;fontColor=#000000;strokeColor=none;strokeWidth=2;fillColor=#FFFFFF;" parent="1" vertex="1">
                    <mxGeometry x="434" y="550" width="136" height="60" as="geometry"/>
                </mxCell>
                <mxCell id="28" style="edgeStyle=none;html=1;fontSize=20;fontColor=#000000;" parent="1" target="8" edge="1">
                    <mxGeometry relative="1" as="geometry">
                        <mxPoint x="414" y="490" as="sourcePoint"/>
                    </mxGeometry>
                </mxCell>
                <mxCell id="33" value="" style="editableCssRules=.*;shape=image;verticalLabelPosition=bottom;labelBackgroundColor=#ffffff;verticalAlign=top;aspect=fixed;imageAspect=0;image=data:image/svg+xml,PHN2ZyB4bWxucz0iaHR0cDovL3d3dy53My5vcmcvMjAwMC9zdmciIHhtbG5zOnY9Imh0dHBzOi8vdmVjdGEuaW8vbmFubyIgd2lkdGg9IjE2MCIgaGVpZ2h0PSIyNDAiIHZpZXdCb3g9IjAgMCAxNjAgMjQwIj4mI3hhOwk8c3R5bGUgdHlwZT0idGV4dC9jc3MiPiYjeGE7CS5zdDB7ZmlsbDojNDY2YmIwO30mI3hhOwk8L3N0eWxlPiYjeGE7CTxwYXRoIGNsYXNzPSJzdDAiIGQ9Ik02MCAyNDBMMCAyMTBoMTYwem0wLTE2MEwwIDIwMGw2MC0xMHpNNzAgMHYxOTBsOTAgMTB6Ii8+JiN4YTs8L3N2Zz4=;fontColor=default;fontSize=20;strokeColor=#E904EE;strokeWidth=2;fillColor=#FFFFFF;" parent="1" vertex="1">
                    <mxGeometry x="477.75" y="480" width="32.5" height="50" as="geometry"/>
                </mxCell>
                <mxCell id="52" value="" style="endArrow=classicThin;html=1;fontSize=20;fontColor=#000000;strokeColor=#009900;strokeWidth=4;endSize=5;startSize=5;exitX=0;exitY=0.5;exitDx=0;exitDy=0;entryX=1;entryY=0.5;entryDx=0;entryDy=0;startArrow=classicThin;startFill=1;endFill=1;edgeStyle=orthogonalEdgeStyle;" parent="1" source="23" target="19" edge="1">
                    <mxGeometry width="50" height="50" relative="1" as="geometry">
                        <mxPoint x="756" y="630" as="sourcePoint"/>
                        <mxPoint x="758.3" y="827.2" as="targetPoint"/>
                        <Array as="points">
                            <mxPoint x="910" y="870"/>
                        </Array>
                    </mxGeometry>
                </mxCell>
                <mxCell id="53" value="&lt;span style=&quot;color: rgb(0 , 0 , 0)&quot;&gt;Cluster: West&lt;/span&gt;" style="text;html=1;align=center;verticalAlign=middle;resizable=0;points=[];autosize=1;strokeColor=none;fillColor=none;fontSize=20;" parent="1" vertex="1">
                    <mxGeometry x="145" y="175" width="140" height="30" as="geometry"/>
                </mxCell>
                <mxCell id="54" value="&lt;span style=&quot;color: rgb(0 , 0 , 0)&quot;&gt;Cluster: East&lt;/span&gt;" style="text;html=1;align=center;verticalAlign=middle;resizable=0;points=[];autosize=1;strokeColor=none;fillColor=none;fontSize=20;" parent="1" vertex="1">
                    <mxGeometry x="835" y="170" width="130" height="30" as="geometry"/>
                </mxCell>
                <mxCell id="56" value="" style="endArrow=classicThin;html=1;fontSize=20;fontColor=#000000;strokeColor=#009900;strokeWidth=4;endSize=5;startSize=5;exitX=0;exitY=0.495;exitDx=0;exitDy=0;entryX=1;entryY=0.5;entryDx=0;entryDy=0;startArrow=classicThin;startFill=1;endFill=1;edgeStyle=orthogonalEdgeStyle;exitPerimeter=0;" edge="1" parent="1" source="14">
                    <mxGeometry width="50" height="50" relative="1" as="geometry">
                        <mxPoint x="905" y="319.5" as="sourcePoint"/>
                        <mxPoint x="420" y="319.5" as="targetPoint"/>
                        <Array as="points"/>
                    </mxGeometry>
                </mxCell>
                <mxCell id="58" value="&lt;font style=&quot;font-size: 18px&quot;&gt;Sub Control Plane&lt;/font&gt;" style="rounded=1;whiteSpace=wrap;html=1;labelBackgroundColor=none;fontColor=#000000;strokeColor=none;strokeWidth=2;fillColor=#FFFFFF;" vertex="1" parent="1">
                    <mxGeometry x="1164" y="540" width="120" height="60" as="geometry"/>
                </mxCell>
                <mxCell id="59" value="" style="editableCssRules=.*;shape=image;verticalLabelPosition=bottom;labelBackgroundColor=#ffffff;verticalAlign=top;aspect=fixed;imageAspect=0;image=data:image/svg+xml,PHN2ZyB4bWxucz0iaHR0cDovL3d3dy53My5vcmcvMjAwMC9zdmciIHhtbG5zOnY9Imh0dHBzOi8vdmVjdGEuaW8vbmFubyIgd2lkdGg9IjE2MCIgaGVpZ2h0PSIyNDAiIHZpZXdCb3g9IjAgMCAxNjAgMjQwIj4mI3hhOwk8c3R5bGUgdHlwZT0idGV4dC9jc3MiPiYjeGE7CS5zdDB7ZmlsbDojNDY2YmIwO30mI3hhOwk8L3N0eWxlPiYjeGE7CTxwYXRoIGNsYXNzPSJzdDAiIGQ9Ik02MCAyNDBMMCAyMTBoMTYwem0wLTE2MEwwIDIwMGw2MC0xMHpNNzAgMHYxOTBsOTAgMTB6Ii8+JiN4YTs8L3N2Zz4=;fontColor=default;fontSize=20;strokeColor=#E904EE;strokeWidth=2;fillColor=#FFFFFF;" vertex="1" parent="1">
                    <mxGeometry x="1213.88" y="498.85" width="20.25" height="31.15" as="geometry"/>
                </mxCell>
                <mxCell id="60" value="" style="endArrow=classicThin;html=1;fontSize=20;fontColor=#000000;strokeColor=#496BAF;strokeWidth=4;endSize=5;startSize=5;exitX=0.25;exitY=0;exitDx=0;exitDy=0;entryX=1;entryY=0.75;entryDx=0;entryDy=0;startArrow=none;startFill=0;endFill=1;edgeStyle=orthogonalEdgeStyle;dashed=1;" edge="1" parent="1" source="8" target="6">
                    <mxGeometry width="50" height="50" relative="1" as="geometry">
                        <mxPoint x="905" y="400" as="sourcePoint"/>
                        <mxPoint x="415" y="400" as="targetPoint"/>
                        <Array as="points"/>
                    </mxGeometry>
                </mxCell>
                <mxCell id="61" value="" style="endArrow=classicThin;html=1;fontSize=20;fontColor=#000000;strokeColor=#496BAF;strokeWidth=4;endSize=5;startSize=5;exitX=0.819;exitY=-0.004;exitDx=0;exitDy=0;entryX=0;entryY=0.75;entryDx=0;entryDy=0;startArrow=none;startFill=0;endFill=1;edgeStyle=orthogonalEdgeStyle;dashed=1;exitPerimeter=0;" edge="1" parent="1" source="8" target="14">
                    <mxGeometry width="50" height="50" relative="1" as="geometry">
                        <mxPoint x="472" y="490" as="sourcePoint"/>
                        <mxPoint x="430" y="355" as="targetPoint"/>
                        <Array as="points"/>
                    </mxGeometry>
                </mxCell>
                <mxCell id="62" value="" style="endArrow=classicThin;html=1;fontSize=20;fontColor=#000000;strokeColor=#496BAF;strokeWidth=4;endSize=5;startSize=5;exitX=0.25;exitY=1;exitDx=0;exitDy=0;entryX=1;entryY=0.25;entryDx=0;entryDy=0;startArrow=none;startFill=0;endFill=1;edgeStyle=orthogonalEdgeStyle;dashed=1;" edge="1" parent="1" source="8" target="19">
                    <mxGeometry width="50" height="50" relative="1" as="geometry">
                        <mxPoint x="472" y="490" as="sourcePoint"/>
                        <mxPoint x="430" y="355" as="targetPoint"/>
                        <Array as="points"/>
                    </mxGeometry>
                </mxCell>
                <mxCell id="63" value="" style="endArrow=classicThin;html=1;fontSize=20;fontColor=#000000;strokeColor=#496BAF;strokeWidth=4;endSize=5;startSize=5;exitX=0.75;exitY=1;exitDx=0;exitDy=0;entryX=0;entryY=0.25;entryDx=0;entryDy=0;startArrow=none;startFill=0;endFill=1;edgeStyle=orthogonalEdgeStyle;dashed=1;" edge="1" parent="1" source="8" target="23">
                    <mxGeometry width="50" height="50" relative="1" as="geometry">
                        <mxPoint x="544.8319999999999" y="489.44000000000005" as="sourcePoint"/>
                        <mxPoint x="920" y="355" as="targetPoint"/>
                        <Array as="points"/>
                    </mxGeometry>
                </mxCell>
                <mxCell id="64" value="" style="endArrow=classicThin;html=1;fontSize=20;fontColor=#000000;strokeColor=#59A6C2;strokeWidth=4;endSize=5;startSize=5;exitX=0.5;exitY=0;exitDx=0;exitDy=0;entryX=1;entryY=0.75;entryDx=0;entryDy=0;startArrow=none;startFill=0;endFill=1;edgeStyle=orthogonalEdgeStyle;dashed=1;labelBackgroundColor=none;" edge="1" parent="1" source="57" target="14">
                    <mxGeometry width="50" height="50" relative="1" as="geometry">
                        <mxPoint x="544.8319999999999" y="489.44000000000005" as="sourcePoint"/>
                        <mxPoint x="920" y="355" as="targetPoint"/>
                        <Array as="points"/>
                    </mxGeometry>
                </mxCell>
                <mxCell id="66" value="&lt;span style=&quot;color: rgb(0, 0, 0); font-size: 18px;&quot;&gt;&lt;font style=&quot;font-size: 18px;&quot;&gt;Sidecar Control&lt;/font&gt;&lt;/span&gt;" style="edgeLabel;html=1;align=center;verticalAlign=middle;resizable=0;points=[];labelBackgroundColor=none;fontSize=18;" vertex="1" connectable="0" parent="64">
                    <mxGeometry x="-0.2004" y="4" relative="1" as="geometry">
                        <mxPoint x="4" y="288" as="offset"/>
                    </mxGeometry>
                </mxCell>
                <mxCell id="65" value="" style="endArrow=classicThin;html=1;fontSize=20;fontColor=#000000;strokeColor=#59A6C2;strokeWidth=4;endSize=5;startSize=5;exitX=0.5;exitY=1;exitDx=0;exitDy=0;entryX=1;entryY=0.5;entryDx=0;entryDy=0;startArrow=none;startFill=0;endFill=1;edgeStyle=orthogonalEdgeStyle;dashed=1;labelBackgroundColor=#FFFFFF;" edge="1" parent="1" source="57" target="23">
                    <mxGeometry width="50" height="50" relative="1" as="geometry">
                        <mxPoint x="1184" y="490" as="sourcePoint"/>
                        <mxPoint x="1150" y="355" as="targetPoint"/>
                        <Array as="points"/>
                    </mxGeometry>
                </mxCell>
            </root>
        </mxGraphModel>
    </diagram>
</mxfile>
